<mxfile host="Electron" agent="Mozilla/5.0 (Windows NT 10.0; Win64; x64) AppleWebKit/537.36 (KHTML, like Gecko) draw.io/27.0.9 Chrome/134.0.6998.205 Electron/35.4.0 Safari/537.36" version="27.0.9">
  <diagram name="Page-1" id="d9OIoNTA1jFpcy0AZxq9">
    <mxGraphModel dx="983" dy="1680" grid="1" gridSize="10" guides="1" tooltips="1" connect="1" arrows="1" fold="1" page="1" pageScale="1" pageWidth="850" pageHeight="1100" math="0" shadow="0">
      <root>
        <mxCell id="0" />
        <mxCell id="1" parent="0" />
        <mxCell id="RXn3_LNgNggJnwAcIsZc-27" value="Space Invaders Emulator Architecture" style="shape=umlFrame;whiteSpace=wrap;html=1;pointerEvents=0;width=190;height=40;" parent="1" vertex="1">
          <mxGeometry x="60" y="-150" width="580" height="570" as="geometry" />
        </mxCell>
        <mxCell id="RXn3_LNgNggJnwAcIsZc-15" value="Model" style="rounded=1;whiteSpace=wrap;html=1;verticalAlign=top;labelBackgroundColor=none;fillColor=#fff2cc;strokeColor=#d6b656;gradientColor=#ffd966;" parent="1" vertex="1">
          <mxGeometry x="160" y="80" width="460" height="260" as="geometry" />
        </mxCell>
        <mxCell id="RXn3_LNgNggJnwAcIsZc-13" value="8080 CPU Emulation" style="rounded=1;whiteSpace=wrap;html=1;verticalAlign=top;labelBackgroundColor=none;fillColor=#f5f5f5;gradientColor=#b3b3b3;strokeColor=#666666;" parent="1" vertex="1">
          <mxGeometry x="250" y="110" width="340" height="210" as="geometry" />
        </mxCell>
        <mxCell id="RXn3_LNgNggJnwAcIsZc-3" value="OpCode Interpreter" style="rounded=1;whiteSpace=wrap;html=1;labelBackgroundColor=none;fillColor=#dae8fc;gradientColor=#7ea6e0;strokeColor=#6c8ebf;" parent="1" vertex="1">
          <mxGeometry x="390" y="190" width="100" height="50" as="geometry" />
        </mxCell>
        <mxCell id="RXn3_LNgNggJnwAcIsZc-4" value="CPU State" style="rounded=1;whiteSpace=wrap;html=1;labelBackgroundColor=none;fillColor=#e6d0de;gradientColor=#d5739d;strokeColor=#996185;" parent="1" vertex="1">
          <mxGeometry x="270" y="252.5" width="140" height="45" as="geometry" />
        </mxCell>
        <mxCell id="RXn3_LNgNggJnwAcIsZc-5" value="Virtual Memory (ROM &amp;amp; RAM)" style="rounded=1;whiteSpace=wrap;html=1;labelBackgroundColor=none;fillColor=#e6d0de;gradientColor=#d5739d;strokeColor=#996185;" parent="1" vertex="1">
          <mxGeometry x="420" y="252.5" width="150" height="47.5" as="geometry" />
        </mxCell>
        <mxCell id="RXn3_LNgNggJnwAcIsZc-8" value="Inputs" style="rounded=1;whiteSpace=wrap;html=1;labelBackgroundColor=none;fillColor=#dae8fc;gradientColor=#7ea6e0;strokeColor=#6c8ebf;" parent="1" vertex="1">
          <mxGeometry x="330" y="190" width="50" height="50" as="geometry" />
        </mxCell>
        <mxCell id="RXn3_LNgNggJnwAcIsZc-9" value="Outputs" style="rounded=1;whiteSpace=wrap;html=1;labelBackgroundColor=none;fillColor=#dae8fc;gradientColor=#7ea6e0;strokeColor=#6c8ebf;" parent="1" vertex="1">
          <mxGeometry x="270" y="190" width="50" height="50" as="geometry" />
        </mxCell>
        <mxCell id="RXn3_LNgNggJnwAcIsZc-10" value="8080 Emulation Shell (API)" style="rounded=1;whiteSpace=wrap;html=1;labelBackgroundColor=none;fillColor=#dae8fc;gradientColor=#7ea6e0;strokeColor=#6c8ebf;" parent="1" vertex="1">
          <mxGeometry x="270" y="140" width="300" height="40" as="geometry" />
        </mxCell>
        <mxCell id="RXn3_LNgNggJnwAcIsZc-11" value="ROM Loader" style="rounded=1;whiteSpace=wrap;html=1;labelBackgroundColor=none;fillColor=#dae8fc;gradientColor=#7ea6e0;strokeColor=#6c8ebf;" parent="1" vertex="1">
          <mxGeometry x="180" y="125" width="50" height="175" as="geometry" />
        </mxCell>
        <mxCell id="RXn3_LNgNggJnwAcIsZc-14" value="Interrupt Generator" style="rounded=1;whiteSpace=wrap;html=1;labelBackgroundColor=none;fillColor=#dae8fc;gradientColor=#7ea6e0;strokeColor=#6c8ebf;" parent="1" vertex="1">
          <mxGeometry x="500" y="190" width="70" height="50" as="geometry" />
        </mxCell>
        <mxCell id="RXn3_LNgNggJnwAcIsZc-17" value="Controller" style="rounded=1;whiteSpace=wrap;html=1;verticalAlign=top;labelBackgroundColor=none;fillColor=#fff2cc;strokeColor=#d6b656;gradientColor=#ffd966;" parent="1" vertex="1">
          <mxGeometry x="160" y="-10" width="460" height="80" as="geometry" />
        </mxCell>
        <mxCell id="RXn3_LNgNggJnwAcIsZc-18" value="View" style="rounded=1;whiteSpace=wrap;html=1;verticalAlign=top;labelBackgroundColor=none;fillColor=#fff2cc;strokeColor=#d6b656;gradientColor=#ffd966;" parent="1" vertex="1">
          <mxGeometry x="80" y="-100" width="540" height="80" as="geometry" />
        </mxCell>
        <mxCell id="RXn3_LNgNggJnwAcIsZc-19" value="Qt GUI Framework" style="rounded=1;whiteSpace=wrap;html=1;labelBackgroundColor=none;fillColor=#d5e8d4;strokeColor=#82b366;gradientColor=#97d077;" parent="1" vertex="1">
          <mxGeometry x="80" y="-10" width="70" height="350" as="geometry" />
        </mxCell>
        <mxCell id="RXn3_LNgNggJnwAcIsZc-20" value="Graphics Emulation" style="rounded=1;whiteSpace=wrap;html=1;labelBackgroundColor=none;fillColor=#dae8fc;gradientColor=#7ea6e0;strokeColor=#6c8ebf;" parent="1" vertex="1">
          <mxGeometry x="350" y="-70" width="120" height="32.5" as="geometry" />
        </mxCell>
        <mxCell id="RXn3_LNgNggJnwAcIsZc-22" value="User Inputs" style="rounded=1;whiteSpace=wrap;html=1;labelBackgroundColor=none;fillColor=#dae8fc;strokeColor=#6c8ebf;gradientColor=#7ea6e0;" parent="1" vertex="1">
          <mxGeometry x="220" y="-70" width="120" height="32.5" as="geometry" />
        </mxCell>
        <mxCell id="RXn3_LNgNggJnwAcIsZc-24" value="OS" style="rounded=1;whiteSpace=wrap;html=1;verticalAlign=middle;labelBackgroundColor=none;fillColor=#d5e8d4;strokeColor=#82b366;gradientColor=#97d077;" parent="1" vertex="1">
          <mxGeometry x="80" y="350" width="540" height="50" as="geometry" />
        </mxCell>
        <mxCell id="RXn3_LNgNggJnwAcIsZc-28" value="Frame Controller" style="rounded=1;whiteSpace=wrap;html=1;labelBackgroundColor=none;fillColor=#dae8fc;gradientColor=#7ea6e0;strokeColor=#6c8ebf;" parent="1" vertex="1">
          <mxGeometry x="490" y="20" width="110" height="35" as="geometry" />
        </mxCell>
        <mxCell id="RXn3_LNgNggJnwAcIsZc-29" value="Event Handlers" style="rounded=1;whiteSpace=wrap;html=1;labelBackgroundColor=none;fillColor=#dae8fc;gradientColor=#7ea6e0;strokeColor=#6c8ebf;" parent="1" vertex="1">
          <mxGeometry x="90" y="-70" width="120" height="32.5" as="geometry" />
        </mxCell>
        <mxCell id="RXn3_LNgNggJnwAcIsZc-30" value="Glue Logic" style="rounded=1;whiteSpace=wrap;html=1;labelBackgroundColor=none;fillColor=#dae8fc;gradientColor=#7ea6e0;strokeColor=#6c8ebf;" parent="1" vertex="1">
          <mxGeometry x="310" y="20" width="170" height="35" as="geometry" />
        </mxCell>
        <mxCell id="IHCsPG37WImuG1ADCWWG-1" value="User Input Control" style="rounded=1;whiteSpace=wrap;html=1;labelBackgroundColor=none;fillColor=#dae8fc;gradientColor=#7ea6e0;strokeColor=#6c8ebf;" vertex="1" parent="1">
          <mxGeometry x="180" y="20" width="120" height="35" as="geometry" />
        </mxCell>
        <mxCell id="IHCsPG37WImuG1ADCWWG-6" value="Video Testing" style="rounded=1;whiteSpace=wrap;html=1;labelBackgroundColor=none;fillColor=#dae8fc;gradientColor=#7ea6e0;strokeColor=#6c8ebf;" vertex="1" parent="1">
          <mxGeometry x="480" y="-70" width="120" height="32.5" as="geometry" />
        </mxCell>
      </root>
    </mxGraphModel>
  </diagram>
</mxfile>
